<mxfile host="app.diagrams.net" modified="2023-10-20T02:12:01.068Z" agent="Mozilla/5.0 (Windows NT 10.0; Win64; x64) AppleWebKit/537.36 (KHTML, like Gecko) Chrome/113.0.0.0 Safari/537.36" version="22.0.5" etag="UAdXNaOzpmAeye9qGXgS" type="github">
  <diagram name="第 1 页" id="AFagJou0Auw5d1LpVBJ_">
    <mxGraphModel>
      <root>
        <mxCell id="0" />
        <mxCell id="1" parent="0" />
      </root>
    </mxGraphModel>
  </diagram>
</mxfile>
